<?xml version="1.0" standalone="no"?>
<!DOCTYPE svg PUBLIC "-//W3C//DTD SVG 1.1//EN" "http://www.w3.org/Graphics/SVG/1.1/DTD/svg11.dtd">

<svg width="1518.0" height="510.0" viewBox="0 0 1518.0 510.0" version="1.1" xmlns="http://www.w3.org/2000/svg" xmlns:xlink="http://www.w3.org/1999/xlink">
<!-- automatically generated by aafigure --><text x="255.0" y="41.85" font-family="sans-serif" font-size="21.0" fill="#000000" >
  MultiConcurrentCollector
</text>
<text x="66.0" y="83.85000000000001" font-family="sans-serif" font-size="21.0" fill="#000000" >
  Collector 1
</text>
<text x="444.0" y="83.85000000000001" font-family="sans-serif" font-size="21.0" fill="#000000" >
  Collector 2
</text>
<text x="822.0" y="83.85000000000001" font-family="sans-serif" font-size="21.0" fill="#000000" >
  Collector 3
</text>
<text x="1263.0" y="83.85000000000001" font-family="sans-serif" font-size="21.0" fill="#000000" >
  Main
</text>
<text x="45.0" y="125.85" font-family="sans-serif" font-size="21.0" fill="#000000" >
  env1
</text>
<text x="234.0" y="125.85" font-family="sans-serif" font-size="21.0" fill="#000000" >
  env2
</text>
<text x="423.0" y="125.85" font-family="sans-serif" font-size="21.0" fill="#000000" >
  env3
</text>
<text x="612.0" y="125.85" font-family="sans-serif" font-size="21.0" fill="#000000" >
  env4
</text>
<text x="801.0" y="125.85" font-family="sans-serif" font-size="21.0" fill="#000000" >
  env5
</text>
<text x="990.0" y="125.85" font-family="sans-serif" font-size="21.0" fill="#000000" >
  env6
</text>
<text x="24.0" y="167.85" font-family="sans-serif" font-size="21.0" fill="#000000" >
  reset
</text>
<text x="213.0" y="167.85" font-family="sans-serif" font-size="21.0" fill="#000000" >
  reset
</text>
<text x="402.0" y="167.85" font-family="sans-serif" font-size="21.0" fill="#000000" >
  reset
</text>
<text x="591.0" y="167.85" font-family="sans-serif" font-size="21.0" fill="#000000" >
  reset
</text>
<text x="780.0" y="167.85" font-family="sans-serif" font-size="21.0" fill="#000000" >
  reset
</text>
<text x="969.0" y="167.85" font-family="sans-serif" font-size="21.0" fill="#000000" >
  reset
</text>
<text x="171.0" y="209.85" font-family="sans-serif" font-size="21.0" fill="#000000" >
  actor
</text>
<text x="927.0" y="209.85" font-family="sans-serif" font-size="21.0" fill="#000000" >
  actor
</text>
<text x="45.0" y="251.85" font-family="sans-serif" font-size="21.0" fill="#000000" >
  step
</text>
<text x="234.0" y="251.85" font-family="sans-serif" font-size="21.0" fill="#000000" >
  step
</text>
<text x="549.0" y="251.85" font-family="sans-serif" font-size="21.0" fill="#000000" >
  actor
</text>
<text x="801.0" y="293.84999999999997" font-family="sans-serif" font-size="21.0" fill="#000000" >
  step
</text>
<text x="990.0" y="293.84999999999997" font-family="sans-serif" font-size="21.0" fill="#000000" >
  step
</text>
<text x="171.0" y="335.84999999999997" font-family="sans-serif" font-size="21.0" fill="#000000" >
  actor    |
</text>
<text x="612.0" y="335.84999999999997" font-family="sans-serif" font-size="21.0" fill="#000000" >
  step
</text>
<text x="927.0" y="335.84999999999997" font-family="sans-serif" font-size="21.0" fill="#000000" >
  actor
</text>
<text x="45.0" y="377.85" font-family="sans-serif" font-size="21.0" fill="#000000" >
  yield batch 1
</text>
<text x="549.0" y="377.85" font-family="sans-serif" font-size="21.0" fill="#000000" >
  actor
</text>
<text x="1158.0" y="377.85" font-family="sans-serif" font-size="21.0" fill="#000000" >
  collect, train
</text>
<text x="45.0" y="419.85" font-family="sans-serif" font-size="21.0" fill="#000000" >
  step
</text>
<text x="234.0" y="419.85" font-family="sans-serif" font-size="21.0" fill="#000000" >
  step
</text>
<text x="801.0" y="419.85" font-family="sans-serif" font-size="21.0" fill="#000000" >
  yield batch 2
</text>
<text x="1158.0" y="419.85" font-family="sans-serif" font-size="21.0" fill="#000000" >
  collect, train
</text>
<text x="423.0" y="461.85" font-family="sans-serif" font-size="21.0" fill="#000000" >
  yield batch 3
</text>
<text x="1158.0" y="461.85" font-family="sans-serif" font-size="21.0" fill="#000000" >
  collect, train
</text>
<line x1="13.5" y1="13.5" x2="1504.5" y2="13.5" stroke="#000000" stroke-width="2.0" />
<line x1="13.5" y1="13.5" x2="13.5" y2="496.5" stroke="#000000" stroke-width="2.0" />
<line x1="1147.5" y1="24.0" x2="1147.5" y2="486.0" stroke="#000000" stroke-width="2.0" />
<line x1="1504.5" y1="13.5" x2="1504.5" y2="496.5" stroke="#000000" stroke-width="2.0" />
<line x1="13.5" y1="45.0" x2="1147.5" y2="45.0" stroke="#000000" stroke-width="2.0" />
<line x1="391.5" y1="66.0" x2="391.5" y2="486.0" stroke="#000000" stroke-width="2.0" />
<line x1="769.5" y1="66.0" x2="769.5" y2="486.0" stroke="#000000" stroke-width="2.0" />
<line x1="13.5" y1="87.0" x2="391.5" y2="87.0" stroke="#000000" stroke-width="2.0" />
<line x1="391.5" y1="87.0" x2="769.5" y2="87.0" stroke="#000000" stroke-width="2.0" />
<line x1="769.5" y1="87.0" x2="1147.5" y2="87.0" stroke="#000000" stroke-width="2.0" />
<line x1="1147.5" y1="87.0" x2="1504.5" y2="87.0" stroke="#000000" stroke-width="2.0" />
<line x1="202.5" y1="108.0" x2="202.5" y2="192.0" stroke="#000000" stroke-width="2.0" />
<line x1="580.5" y1="108.0" x2="580.5" y2="234.0" stroke="#000000" stroke-width="2.0" />
<line x1="958.5" y1="108.0" x2="958.5" y2="192.0" stroke="#000000" stroke-width="2.0" />
<line x1="13.5" y1="129.0" x2="202.5" y2="129.0" stroke="#000000" stroke-width="2.0" />
<line x1="202.5" y1="129.0" x2="391.5" y2="129.0" stroke="#000000" stroke-width="2.0" />
<line x1="391.5" y1="129.0" x2="580.5" y2="129.0" stroke="#000000" stroke-width="2.0" />
<line x1="580.5" y1="129.0" x2="769.5" y2="129.0" stroke="#000000" stroke-width="2.0" />
<line x1="769.5" y1="129.0" x2="958.5" y2="129.0" stroke="#000000" stroke-width="2.0" />
<line x1="958.5" y1="129.0" x2="1147.5" y2="129.0" stroke="#000000" stroke-width="2.0" />
<line x1="1147.5" y1="129.0" x2="1504.5" y2="129.0" stroke="#000000" stroke-width="2.0" />
<line x1="202.5" y1="234.0" x2="202.5" y2="318.0" stroke="#000000" stroke-width="2.0" />
<line x1="958.5" y1="276.0" x2="958.5" y2="318.0" stroke="#000000" stroke-width="2.0" />
<line x1="580.5" y1="318.0" x2="580.5" y2="360.0" stroke="#000000" stroke-width="2.0" />
<line x1="202.5" y1="402.0" x2="202.5" y2="486.0" stroke="#000000" stroke-width="2.0" />
<line x1="13.5" y1="496.5" x2="1504.5" y2="496.5" stroke="#000000" stroke-width="2.0" />
<text x="444.0" y="335.84999999999997" font-family="sans-serif" font-size="21.0" fill="#000000" >
  step"
</text>
</svg>
