<?xml version="1.0" standalone="no"?>
<!DOCTYPE svg PUBLIC "-//W3C//DTD SVG 1.1//EN" "http://www.w3.org/Graphics/SVG/1.1/DTD/svg11.dtd">

<svg width="510.0" height="291.6" viewBox="0 0 510.0 291.6" version="1.1" xmlns="http://www.w3.org/2000/svg" xmlns:xlink="http://www.w3.org/1999/xlink">
<!-- automatically generated by aafigure --><text x="255.0" y="84.48" font-family="sans-serif" font-size="16.8" fill="#000000" >
  common
</text>
<line x1="129.0" y1="11.4" x2="397.8" y2="11.4" stroke="#000000" stroke-width="2.0" />
<line x1="129.0" y1="11.4" x2="129.0" y2="45.0" stroke="#000000" stroke-width="2.0" />
<line x1="397.8" y1="11.4" x2="397.8" y2="45.0" stroke="#000000" stroke-width="2.0" />
<line x1="129.0" y1="45.0" x2="397.8" y2="45.0" stroke="#000000" stroke-width="2.0" />
<line x1="280.2" y1="53.400000000000006" x2="280.2" y2="70.2" stroke="#000000" stroke-width="2.0" />
<g>
    <line x1="280.2" y1="120.60000000000001" x2="276.0" y2="108.0" stroke="#000000" stroke-width="2.0" />
    <line x1="280.2" y1="120.60000000000001" x2="284.40000000000003" y2="108.0" stroke="#000000" stroke-width="2.0" />
    <line x1="280.2" y1="87.0" x2="280.2" y2="120.60000000000001" stroke="#000000" stroke-width="2.0" />
</g>
<line x1="162.6" y1="129.0" x2="381.0" y2="129.0" stroke="#000000" stroke-width="2.0" />
<line x1="162.6" y1="129.0" x2="162.6" y2="162.6" stroke="#000000" stroke-width="2.0" />
<line x1="381.0" y1="129.0" x2="381.0" y2="162.6" stroke="#000000" stroke-width="2.0" />
<line x1="162.6" y1="162.6" x2="381.0" y2="162.6" stroke="#000000" stroke-width="2.0" />
<line x1="196.20000000000002" y1="171.0" x2="196.20000000000002" y2="187.8" stroke="#000000" stroke-width="2.0" />
<line x1="364.2" y1="171.0" x2="364.2" y2="187.8" stroke="#000000" stroke-width="2.0" />
<g>
    <line x1="196.20000000000002" y1="238.20000000000002" x2="192.0" y2="225.60000000000002" stroke="#000000" stroke-width="2.0" />
    <line x1="196.20000000000002" y1="238.20000000000002" x2="200.4" y2="225.60000000000002" stroke="#000000" stroke-width="2.0" />
    <line x1="196.20000000000002" y1="204.60000000000002" x2="196.20000000000002" y2="238.20000000000002" stroke="#000000" stroke-width="2.0" />
</g>
<g>
    <line x1="364.2" y1="238.20000000000002" x2="360.0" y2="225.60000000000002" stroke="#000000" stroke-width="2.0" />
    <line x1="364.2" y1="238.20000000000002" x2="368.40000000000003" y2="225.60000000000002" stroke="#000000" stroke-width="2.0" />
    <line x1="364.2" y1="204.60000000000002" x2="364.2" y2="238.20000000000002" stroke="#000000" stroke-width="2.0" />
</g>
<line x1="11.4" y1="246.60000000000002" x2="246.60000000000002" y2="246.60000000000002" stroke="#000000" stroke-width="2.0" />
<line x1="280.2" y1="246.60000000000002" x2="498.6" y2="246.60000000000002" stroke="#000000" stroke-width="2.0" />
<line x1="11.4" y1="246.60000000000002" x2="11.4" y2="280.2" stroke="#000000" stroke-width="2.0" />
<line x1="246.60000000000002" y1="246.60000000000002" x2="246.60000000000002" y2="280.2" stroke="#000000" stroke-width="2.0" />
<line x1="280.2" y1="246.60000000000002" x2="280.2" y2="280.2" stroke="#000000" stroke-width="2.0" />
<line x1="498.6" y1="246.60000000000002" x2="498.6" y2="280.2" stroke="#000000" stroke-width="2.0" />
<line x1="11.4" y1="280.2" x2="246.60000000000002" y2="280.2" stroke="#000000" stroke-width="2.0" />
<line x1="280.2" y1="280.2" x2="498.6" y2="280.2" stroke="#000000" stroke-width="2.0" />
<text x="137.4" y="34.08" font-family="sans-serif" font-size="16.8" fill="#000000" >
  Observation (s)
</text>
<text x="171.0" y="151.68" font-family="sans-serif" font-size="16.8" fill="#000000" >
  Hidden state
</text>
<text x="171.0" y="202.08" font-family="sans-serif" font-size="16.8" fill="#000000" >
  actor
</text>
<text x="339.0" y="202.08" font-family="sans-serif" font-size="16.8" fill="#000000" >
  critic
</text>
<text x="19.8" y="269.28000000000003" font-family="sans-serif" font-size="16.8" fill="#000000" >
  Action (a(s))
</text>
<text x="288.6" y="269.28000000000003" font-family="sans-serif" font-size="16.8" fill="#000000" >
  Value (V(s))
</text>
</svg>
