<?xml version="1.0" standalone="no"?>
<!DOCTYPE svg PUBLIC "-//W3C//DTD SVG 1.1//EN" "http://www.w3.org/Graphics/SVG/1.1/DTD/svg11.dtd">

<svg width="644.4" height="325.2" viewBox="0 0 644.4 325.2" version="1.1" xmlns="http://www.w3.org/2000/svg" xmlns:xlink="http://www.w3.org/1999/xlink">
<!-- automatically generated by aafigure --><text x="271.8" y="101.28" font-family="sans-serif" font-size="16.8" fill="#000000" >
  common
</text>
<line x1="162.6" y1="11.4" x2="431.40000000000003" y2="11.4" stroke="#000000" stroke-width="2.0" />
<line x1="162.6" y1="11.4" x2="162.6" y2="45.0" stroke="#000000" stroke-width="2.0" />
<line x1="431.40000000000003" y1="11.4" x2="431.40000000000003" y2="45.0" stroke="#000000" stroke-width="2.0" />
<line x1="162.6" y1="45.0" x2="431.40000000000003" y2="45.0" stroke="#000000" stroke-width="2.0" />
<g>
    <line x1="297.0" y1="87.0" x2="292.8" y2="74.4" stroke="#000000" stroke-width="2.0" />
    <line x1="297.0" y1="87.0" x2="301.2" y2="74.4" stroke="#000000" stroke-width="2.0" />
    <line x1="297.0" y1="53.400000000000006" x2="297.0" y2="87.0" stroke="#000000" stroke-width="2.0" />
</g>
<g>
    <line x1="297.0" y1="137.4" x2="292.8" y2="124.80000000000001" stroke="#000000" stroke-width="2.0" />
    <line x1="297.0" y1="137.4" x2="301.2" y2="124.80000000000001" stroke="#000000" stroke-width="2.0" />
    <line x1="297.0" y1="103.80000000000001" x2="297.0" y2="137.4" stroke="#000000" stroke-width="2.0" />
</g>
<line x1="179.4" y1="145.8" x2="397.8" y2="145.8" stroke="#000000" stroke-width="2.0" />
<line x1="179.4" y1="145.8" x2="179.4" y2="179.4" stroke="#000000" stroke-width="2.0" />
<line x1="397.8" y1="145.8" x2="397.8" y2="179.4" stroke="#000000" stroke-width="2.0" />
<line x1="179.4" y1="179.4" x2="397.8" y2="179.4" stroke="#000000" stroke-width="2.0" />
<g>
    <line x1="213.0" y1="221.4" x2="208.8" y2="208.8" stroke="#000000" stroke-width="2.0" />
    <line x1="213.0" y1="221.4" x2="217.20000000000002" y2="208.8" stroke="#000000" stroke-width="2.0" />
    <line x1="213.0" y1="187.8" x2="213.0" y2="221.4" stroke="#000000" stroke-width="2.0" />
</g>
<g>
    <line x1="364.2" y1="221.4" x2="360.0" y2="208.8" stroke="#000000" stroke-width="2.0" />
    <line x1="364.2" y1="221.4" x2="368.40000000000003" y2="208.8" stroke="#000000" stroke-width="2.0" />
    <line x1="364.2" y1="187.8" x2="364.2" y2="221.4" stroke="#000000" stroke-width="2.0" />
</g>
<g>
    <line x1="339.0" y1="229.8" x2="326.40000000000003" y2="234.0" stroke="#000000" stroke-width="2.0" />
    <line x1="339.0" y1="229.8" x2="326.40000000000003" y2="225.60000000000002" stroke="#000000" stroke-width="2.0" />
    <line x1="288.6" y1="229.8" x2="339.0" y2="229.8" stroke="#000000" stroke-width="2.0" />
</g>
<g>
    <line x1="213.0" y1="271.8" x2="208.8" y2="259.2" stroke="#000000" stroke-width="2.0" />
    <line x1="213.0" y1="271.8" x2="217.20000000000002" y2="259.2" stroke="#000000" stroke-width="2.0" />
    <line x1="213.0" y1="238.20000000000002" x2="213.0" y2="271.8" stroke="#000000" stroke-width="2.0" />
</g>
<g>
    <line x1="364.2" y1="271.8" x2="360.0" y2="259.2" stroke="#000000" stroke-width="2.0" />
    <line x1="364.2" y1="271.8" x2="368.40000000000003" y2="259.2" stroke="#000000" stroke-width="2.0" />
    <line x1="364.2" y1="238.20000000000002" x2="364.2" y2="271.8" stroke="#000000" stroke-width="2.0" />
</g>
<line x1="78.60000000000001" y1="280.2" x2="313.8" y2="280.2" stroke="#000000" stroke-width="2.0" />
<line x1="347.40000000000003" y1="280.2" x2="633.0" y2="280.2" stroke="#000000" stroke-width="2.0" />
<line x1="78.60000000000001" y1="280.2" x2="78.60000000000001" y2="313.8" stroke="#000000" stroke-width="2.0" />
<line x1="313.8" y1="280.2" x2="313.8" y2="313.8" stroke="#000000" stroke-width="2.0" />
<line x1="347.40000000000003" y1="280.2" x2="347.40000000000003" y2="313.8" stroke="#000000" stroke-width="2.0" />
<line x1="633.0" y1="280.2" x2="633.0" y2="313.8" stroke="#000000" stroke-width="2.0" />
<line x1="78.60000000000001" y1="313.8" x2="313.8" y2="313.8" stroke="#000000" stroke-width="2.0" />
<line x1="347.40000000000003" y1="313.8" x2="633.0" y2="313.8" stroke="#000000" stroke-width="2.0" />
<text x="171.0" y="34.08" font-family="sans-serif" font-size="16.8" fill="#000000" >
  Observation (s)
</text>
<text x="187.8" y="168.48" font-family="sans-serif" font-size="16.8" fill="#000000" >
  Hidden state
</text>
<text x="187.8" y="235.68" font-family="sans-serif" font-size="16.8" fill="#000000" >
  actor
</text>
<text x="355.8" y="235.68" font-family="sans-serif" font-size="16.8" fill="#000000" >
  critic
</text>
<text x="87.0" y="302.88000000000005" font-family="sans-serif" font-size="16.8" fill="#000000" >
  Action (a(s))
</text>
<text x="355.8" y="302.88000000000005" font-family="sans-serif" font-size="16.8" fill="#000000" >
  Quality (Q(s,a))
</text>
</svg>
