<?xml version="1.0" standalone="no"?>
<!DOCTYPE svg PUBLIC "-//W3C//DTD SVG 1.1//EN" "http://www.w3.org/Graphics/SVG/1.1/DTD/svg11.dtd">

<svg width="577.2" height="190.8" viewBox="0 0 577.2 190.8" version="1.1" xmlns="http://www.w3.org/2000/svg" xmlns:xlink="http://www.w3.org/1999/xlink">
<!-- automatically generated by aafigure --><line x1="162.6" y1="11.4" x2="431.40000000000003" y2="11.4" stroke="#000000" stroke-width="2.0" />
<line x1="162.6" y1="11.4" x2="162.6" y2="45.0" stroke="#000000" stroke-width="2.0" />
<line x1="431.40000000000003" y1="11.4" x2="431.40000000000003" y2="45.0" stroke="#000000" stroke-width="2.0" />
<line x1="162.6" y1="45.0" x2="431.40000000000003" y2="45.0" stroke="#000000" stroke-width="2.0" />
<g>
    <line x1="213.0" y1="87.0" x2="208.8" y2="74.4" stroke="#000000" stroke-width="2.0" />
    <line x1="213.0" y1="87.0" x2="217.20000000000002" y2="74.4" stroke="#000000" stroke-width="2.0" />
    <line x1="213.0" y1="53.400000000000006" x2="213.0" y2="87.0" stroke="#000000" stroke-width="2.0" />
</g>
<line x1="297.0" y1="53.400000000000006" x2="297.0" y2="187.8" stroke="#000000" stroke-width="2.0" />
<g>
    <line x1="381.0" y1="87.0" x2="376.8" y2="74.4" stroke="#000000" stroke-width="2.0" />
    <line x1="381.0" y1="87.0" x2="385.2" y2="74.4" stroke="#000000" stroke-width="2.0" />
    <line x1="381.0" y1="53.400000000000006" x2="381.0" y2="87.0" stroke="#000000" stroke-width="2.0" />
</g>
<g>
    <line x1="213.0" y1="137.4" x2="208.8" y2="124.80000000000001" stroke="#000000" stroke-width="2.0" />
    <line x1="213.0" y1="137.4" x2="217.20000000000002" y2="124.80000000000001" stroke="#000000" stroke-width="2.0" />
    <line x1="213.0" y1="103.80000000000001" x2="213.0" y2="137.4" stroke="#000000" stroke-width="2.0" />
</g>
<g>
    <line x1="381.0" y1="137.4" x2="376.8" y2="124.80000000000001" stroke="#000000" stroke-width="2.0" />
    <line x1="381.0" y1="137.4" x2="385.2" y2="124.80000000000001" stroke="#000000" stroke-width="2.0" />
    <line x1="381.0" y1="103.80000000000001" x2="381.0" y2="137.4" stroke="#000000" stroke-width="2.0" />
</g>
<line x1="11.4" y1="145.8" x2="246.60000000000002" y2="145.8" stroke="#000000" stroke-width="2.0" />
<line x1="347.40000000000003" y1="145.8" x2="565.8000000000001" y2="145.8" stroke="#000000" stroke-width="2.0" />
<line x1="11.4" y1="145.8" x2="11.4" y2="179.4" stroke="#000000" stroke-width="2.0" />
<line x1="246.60000000000002" y1="145.8" x2="246.60000000000002" y2="179.4" stroke="#000000" stroke-width="2.0" />
<line x1="347.40000000000003" y1="145.8" x2="347.40000000000003" y2="179.4" stroke="#000000" stroke-width="2.0" />
<line x1="565.8000000000001" y1="145.8" x2="565.8000000000001" y2="179.4" stroke="#000000" stroke-width="2.0" />
<line x1="11.4" y1="179.4" x2="246.60000000000002" y2="179.4" stroke="#000000" stroke-width="2.0" />
<line x1="347.40000000000003" y1="179.4" x2="565.8000000000001" y2="179.4" stroke="#000000" stroke-width="2.0" />
<text x="171.0" y="34.08" font-family="sans-serif" font-size="16.8" fill="#000000" >
  Observation (s)
</text>
<text x="187.8" y="101.28" font-family="sans-serif" font-size="16.8" fill="#000000" >
  actor
</text>
<text x="372.6" y="101.28" font-family="sans-serif" font-size="16.8" fill="#000000" >
  critic
</text>
<text x="19.8" y="168.48" font-family="sans-serif" font-size="16.8" fill="#000000" >
  Action (a(s))
</text>
<text x="355.8" y="168.48" font-family="sans-serif" font-size="16.8" fill="#000000" >
  Value (V(s))
</text>
</svg>
