<?xml version="1.0" encoding="UTF-8"?>
<svg id="Layer_1" data-name="Layer 1" xmlns="http://www.w3.org/2000/svg" viewBox="0 0 1447.04 523.68">
  <defs>
    <style>
      .cls-1 {
        stroke: #1e1e1e;
        stroke-width: 2px;
      }

      .cls-1, .cls-2 {
        fill: none;
        stroke-linecap: round;
      }

      .cls-3 {
        fill: #a5d8ff;
      }

      .cls-4 {
        fill: #ffc9c9;
      }

      .cls-5 {
        fill: #1e1e1e;
        font-family: SegoeUI, 'Segoe UI';
        font-size: 20px;
        isolation: isolate;
      }

      .cls-6 {
        fill: #fff;
      }

      .cls-7 {
        fill: #ffec99;
      }

      .cls-2 {
        stroke: #ffec99;
      }

      .cls-8 {
        letter-spacing: -.02em;
      }

      .cls-9 {
        letter-spacing: -.02em;
      }

      .cls-10 {
        letter-spacing: -.04em;
      }

      .cls-11 {
        letter-spacing: -.03em;
      }

      .cls-12 {
        letter-spacing: -.03em;
      }

      .cls-13 {
        letter-spacing: 0em;
      }

      .cls-14 {
        letter-spacing: 0em;
      }

      .cls-15 {
        letter-spacing: .04em;
      }
    </style>
  </defs>
  <rect class="cls-6" width="1447.04" height="523.68"/>
  <g>
    <path class="cls-4" d="M793.48,10c90.3,4.44,184.29,2.56,270.91,0,23.14-2.3,34.46,8.31,32,32-2.26,58.73,1.59,117.2,0,179.37,2.86,22.42-12.62,33.21-32,32-61.55-2.1-123.32,1.03-270.91,0-19.69-3.07-35.58-12.95-32-32-4.32-63.9-4.04-130.68,0-179.37-2.97-21.8,8.03-29.99,32-32"/>
    <path class="cls-1" d="M793.48,10c72.11-1.62,142.72-2.05,270.91,0M793.48,10c72.1-1.41,143.19-1.77,270.91,0M1064.39,10c22.05-.33,33.38,8.67,32,32M1064.39,10c20.15-.35,29.82,12.83,32,32M1096.39,42c.14,67.91,1.67,138.79,0,179.37M1096.39,42c-1.12,58.55-.72,115.08,0,179.37M1096.39,221.37c-.66,22.43-12.2,30.04-32,32M1096.39,221.37c2.03,23.27-10.73,32.63-32,32M1064.39,253.37c-66.86-2.34-133.93.34-270.91,0M1064.39,253.37c-58.61-1.91-117.55-1.72-270.91,0M793.48,253.37c-22.22-1.49-31.42-9.62-32-32M793.48,253.37c-21.92.1-32.39-10.03-32-32M761.48,221.37c-.05-64.32,1.46-126.73,0-179.37M761.48,221.37c.61-53.94-.85-106.93,0-179.37M761.48,42c1.37-19.81,11.05-33.2,32-32M761.48,42c1.34-21.51,10.21-33.15,32-32"/>
  </g>
  <text class="cls-5" transform="translate(846.71 32.62)"><tspan x="0" y="0">Collec</tspan><tspan class="cls-14" x="53.49" y="0">t</tspan><tspan x="60.11" y="0">or </tspan><tspan class="cls-8" x="84.26" y="0">W</tspan><tspan x="102.46" y="0">or</tspan><tspan class="cls-9" x="121.13" y="0">k</tspan><tspan x="130.67" y="0">er 0</tspan></text>
  <g>
    <path class="cls-4" d="M1134.14,10c103.83,2.94,208.15,5.82,270.91,0,23.28,2,31.51,9.88,32,32,4.1,38.15.37,78.14,0,179.37-1.04,24.64-7.29,33.44-32,32-84.5.85-169.6,3-270.91,0-24.58-.92-32.27-10.55-32-32,1.71-54.05-1.46-112.97,0-179.37.06-23.65,13.16-31.98,32-32"/>
    <path class="cls-1" d="M1134.14,10c104.05,1.49,211.44,1.06,270.91,0M1134.14,10c98.64-1.58,198.4-.4,270.91,0M1405.05,10c21.44-.13,31.67,9.36,32,32M1405.05,10c22.51-.89,33.6,10.6,32,32M1437.05,42c1.41,57.79.84,113.81,0,179.37M1437.05,42c.69,65.58-.36,130.57,0,179.37M1437.05,221.37c.84,23.24-12.02,32.62-32,32M1437.05,221.37c.42,20.75-9.15,32.48-32,32M1405.05,253.37c-83.75,1.92-167.08.26-270.91,0M1405.05,253.37c-57.76-.77-116.54-.44-270.91,0M1134.14,253.37c-22.85,1.85-33.96-8.85-32-32M1134.14,253.37c-19.42-1.31-29.97-11.48-32-32M1102.14,221.37c.16-45.88-.23-90.28,0-179.37M1102.14,221.37c.79-68.67-.65-136.62,0-179.37M1102.14,42c-1.76-21.89,9.06-31.82,32-32M1102.14,42c2.05-20.89,11.75-32.25,32-32"/>
  </g>
  <text class="cls-5" transform="translate(1243.83 32.62)"><tspan class="cls-10" x="0" y="0">P</tspan><tspan x="10.46" y="0">olicy</tspan></text>
  <g>
    <path class="cls-4" d="M457.57,143.79c68.12-4.95,140.34-5.91,270.91,0,19.54.87,30.37,12.68,32,32-5.6,61.64-.28,116.56,0,179.37,1.97,23.75-12.99,29.95-32,32-76.73-2.62-153.88-1.95-270.91,0-20.11.37-35.29-9.99-32-32-.34-52.95-3.74-111.24,0-179.37-.79-18.69,13.85-31.18,32-32"/>
    <path class="cls-1" d="M457.57,143.79c74.1-1.84,150.02.21,270.91,0M457.57,143.79c68.66-.16,138.07-.07,270.91,0M728.48,143.79c19.66-1.78,30.02,10.05,32,32M728.48,143.79c20.26.15,30.87,12.87,32,32M760.48,175.79c3.23,51.94.72,101.23,0,179.37M760.48,175.79c.39,41,.51,81.89,0,179.37M760.48,355.16c.19,23.22-12.25,30.19-32,32M760.48,355.16c.15,23.18-10.32,30.49-32,32M728.48,387.16c-95.99.6-192.97-.19-270.91,0M728.48,387.16c-76.72-1.67-152.54-2.5-270.91,0M457.57,387.16c-19.57.64-33.57-10.62-32-32M457.57,387.16c-19.95,1.31-32.62-12.34-32-32M425.57,355.16c-1.86-60.7.2-120.21,0-179.37M425.57,355.16c1.82-54.61,2.45-110.23,0-179.37M425.57,175.79c.96-21.49,10.82-31.32,32-32M425.57,175.79c-.53-19.29,10.54-30.99,32-32"/>
  </g>
  <text class="cls-5" transform="translate(523.54 166.41)"><tspan x="0" y="0">Collec</tspan><tspan class="cls-14" x="53.49" y="0">t</tspan><tspan x="60.11" y="0">or Se</tspan><tspan class="cls-15" x="105.34" y="0">r</tspan><tspan class="cls-13" x="113.1" y="0">v</tspan><tspan x="122.56" y="0">er</tspan></text>
  <g>
    <path class="cls-4" d="M1134.14,270.31c93.08-.82,188.88-5.35,270.91,0,20.18-1.92,35.45,14.03,32,32,1.69,38.31,3.7,76.22,0,179.37-1.19,21.78-7.99,31.05-32,32-64.08-2.01-126.9-.97-270.91,0-21.14,1.9-32.45-10.94-32-32,3.08-68.34-2.28-130.52,0-179.37-2.51-17.97,11.57-28.83,32-32"/>
    <path class="cls-1" d="M1134.14,270.31c71.3.97,144.84-1.38,270.91,0M1134.14,270.31c66.31-.62,131.68-1.22,270.91,0M1405.05,270.31c20.25-1.31,32,8.75,32,32M1405.05,270.31c20.96-.1,33.23,9.3,32,32M1437.05,302.31c-2,66.76-1.02,136.65,0,179.37M1437.05,302.31c-.74,53.49-1.61,107.64,0,179.37M1437.05,481.68c-1.43,21.91-12.66,30.94-32,32M1437.05,481.68c-1.4,20.85-12.83,32.59-32,32M1405.05,513.68c-89.16-.26-174.64-.05-270.91,0M1405.05,513.68c-73.6,2.49-146.5,2.53-270.91,0M1134.14,513.68c-22.65,1.9-33.16-10.95-32-32M1134.14,513.68c-20.04-2.17-32.19-11.23-32-32M1102.14,481.68c.43-67.96.62-133.62,0-179.37M1102.14,481.68c-.33-57.4-.43-115.72,0-179.37M1102.14,302.31c.06-20.56,9.34-31.31,32-32M1102.14,302.31c-.91-20.23,10.75-30.39,32-32"/>
  </g>
  <text class="cls-5" transform="translate(1243.83 292.93)"><tspan class="cls-10" x="0" y="0">P</tspan><tspan x="10.46" y="0">olicy</tspan></text>
  <g>
    <path class="cls-4" d="M42,143.79c74.81,3.63,149.39-.12,270.91,0,20.07-2.77,34.75,9.95,32,32,.45,40.13-3.15,84.23,0,179.37.89,23.99-8.66,29.67-32,32-77.26,3.65-152.48,2.96-270.91,0-23.35,3.5-28.74-13.87-32-32,3.8-36.97-1.08-78.9,0-179.37,3.29-20.21,11.81-32.09,32-32"/>
    <path class="cls-1" d="M42,143.79c70.42-3.46,141.84-3.36,270.91,0M42,143.79c68.69.11,136.38-.14,270.91,0M312.91,143.79c22.43-1.32,31,9.3,32,32M312.91,143.79c20.33,2.28,30.49,9.24,32,32M344.91,175.79c-.04,38.53-1.66,75.82,0,179.37M344.91,175.79c-.49,55.22-.96,111.22,0,179.37M344.91,355.16c.52,20.69-9.88,31.14-32,32M344.91,355.16c.05,22.06-9.98,29.98-32,32M312.91,387.16c-94.06-1.34-189.6-1.8-270.91,0M312.91,387.16c-70.87.84-142.48.43-270.91,0M42,387.16c-22.22,1.72-32.56-10.69-32-32M42,387.16c-22.97-.34-33.25-9.81-32-32M10,355.16c.84-54.69,1.99-109.98,0-179.37M10,355.16c-.28-56.28.48-113.96,0-179.37M10,175.79c1.46-20.73,12.59-32.87,32-32M10,175.79c1.19-22.06,10.99-32.51,32-32"/>
  </g>
  <text class="cls-5" transform="translate(103.31 166.41)"><tspan class="cls-11" x="0" y="0">P</tspan><tspan x="10.56" y="0">arame</tspan><tspan class="cls-14" x="65.55" y="0">t</tspan><tspan x="72.17" y="0">er se</tspan><tspan class="cls-15" x="114" y="0">r</tspan><tspan class="cls-13" x="121.76" y="0">v</tspan><tspan x="131.22" y="0">er</tspan></text>
  <g>
    <path class="cls-4" d="M793.48,267.4c85.08-.89,167.58-.4,270.91,0,19.78,1.26,35.28,10.07,32,32,2.46,72.87,3.58,136.43,0,179.37-.27,20.9-13.07,31.3-32,32-91.24-2.48-176.58-3.41-270.91,0-22.86.75-30.6-13.19-32-32,2.97-40.86,4.52-78.18,0-179.37-3.51-24.21,9.31-30.5,32-32"/>
    <path class="cls-1" d="M793.48,267.4c103.92-.78,205.33-1.89,270.91,0M793.48,267.4c55.36-.74,111.12.29,270.91,0M1064.39,267.4c21.51,1.52,31.66,10.5,32,32M1064.39,267.4c19.27-1.43,34.19,12.34,32,32M1096.39,299.4c2.06,54.92.13,109.63,0,179.37M1096.39,299.4c.52,58.62.4,115.75,0,179.37M1096.39,478.77c-.07,21.94-11.46,33.99-32,32M1096.39,478.77c-.04,19.8-9.1,29.91-32,32M1064.39,510.77c-67.56-1.23-133.16.64-270.91,0M1064.39,510.77c-88.23-2-175.78-2.25-270.91,0M793.48,510.77c-21.18,1.62-33.17-9.83-32-32M793.48,510.77c-20.86-.58-31.81-12.34-32-32M761.48,478.77c.41-43.33,3.6-85.28,0-179.37M761.48,478.77c-.29-50.84-.17-100.39,0-179.37M761.48,299.4c-1.92-20.56,8.76-32.25,32-32M761.48,299.4c-1.76-22.73,12.49-30.59,32-32"/>
  </g>
  <text class="cls-5" transform="translate(846.71 290.02)"><tspan x="0" y="0">Collec</tspan><tspan class="cls-14" x="53.49" y="0">t</tspan><tspan x="60.11" y="0">or </tspan><tspan class="cls-8" x="84.26" y="0">W</tspan><tspan x="102.46" y="0">or</tspan><tspan class="cls-9" x="121.13" y="0">k</tspan><tspan x="130.67" y="0">er 1</tspan></text>
  <g>
    <path class="cls-3" d="M962.91,63.35c25.05-.12,50.45.38,93.52,0,22.72.43,35.39,11.32,32,32-3.8,29.41.53,57.72,0,100.05-1.89,23.48-9.16,29.32-32,32-37.03,3.7-70.45,3.46-93.52,0-24.8,2.96-34.34-9.74-32-32-1.66-22.57-1.5-40.75,0-100.05.31-18.55,8.55-31.62,32-32"/>
    <path class="cls-1" d="M962.91,63.35c35.24-.66,74.38.04,93.52,0M962.91,63.35c26.7,0,52.05-.87,93.52,0M1056.43,63.35c23.28.05,32.02,12.08,32,32M1056.43,63.35c21.31-1.16,31.79,8.99,32,32M1088.43,95.35c-1.41,27.69,1.67,58.56,0,100.05M1088.43,95.35c-.24,39.52-.08,78.16,0,100.05M1088.43,195.4c-.36,22.31-12.33,32.73-32,32M1088.43,195.4c1.48,20.08-10.01,32.78-32,32M1056.43,227.4c-27.43.5-52.89.61-93.52,0M1056.43,227.4c-19.48-.55-37.92,1.13-93.52,0M962.91,227.4c-23.28,1.63-32.39-12.27-32-32M962.91,227.4c-19.23-2-29.84-12.06-32-32M930.91,195.4c-2.75-37.08.27-71.42,0-100.05M930.91,195.4c.78-25.92.55-51.52,0-100.05M930.91,95.35c.61-21.82,9.3-33.95,32-32M930.91,95.35c.85-19.22,10.91-29.89,32-32"/>
  </g>
  <text class="cls-5" transform="translate(978.87 85.97)"><tspan x="0" y="0">Sender</tspan></text>
  <g>
    <path class="cls-2" d="M780.08,71.51h0M780.08,71.51h0M774.97,89.59c4.26-6.43,10.07-10.8,18.37-21.13M774.97,89.59c6.72-8.14,13.71-15.76,18.37-21.13M775.1,101.63c7.83-7.3,15.76-16.3,31.49-36.23M775.1,101.63c7.35-8.56,15.1-16.91,31.49-36.23M774.58,114.42c15.07-17.57,28.11-32.09,42.64-49.05M774.58,114.42c11.89-12.16,24.09-26.62,42.64-49.05M774.71,126.46c16.34-20.71,37.77-41.79,53.14-61.13M774.71,126.46c13.6-15.03,25.5-29.27,53.14-61.13M774.84,138.51c18.43-19.53,36.85-41.7,63.64-73.21M774.84,138.51c13.61-17.58,27.56-32.54,63.64-73.21M774.32,151.3c15.99-19.67,32.57-38.84,74.79-86.04M774.32,151.3c18.35-19.74,34.57-40.42,74.79-86.04M774.45,163.34c17.48-21.58,35.57-45.07,84.63-97.36M774.45,163.34c29-34.26,58.08-66.47,84.63-97.36M774.59,175.38c27.83-30.09,55.91-63.52,95.12-109.43M774.59,175.38c21.6-26.18,45.93-51.67,95.12-109.43M774.72,187.42c42.43-48.35,80.21-96.45,105.62-121.5M774.72,187.42c39.92-46.12,78.95-91.23,105.62-121.5M775.51,198.71c35.72-38.36,66.3-78.3,115.47-132.83M775.51,198.71c36.18-42.74,71.62-83.69,115.47-132.83M775.64,210.75c29.06-33.45,54.17-64.68,125.97-144.9M775.64,210.75c33.5-41.42,69.02-83.25,125.97-144.9M780.37,217.51c46.36-54.45,93.65-106.08,129.9-149.43M780.37,217.51c41.84-50.46,84.62-98.54,129.9-149.43M785.75,223.51c46.14-54.93,92.42-107.99,133.83-153.96M785.75,223.51c34.17-39.29,67.83-77.38,133.83-153.96M793.1,227.25c47.51-56.07,99.35-112.46,131.87-151.7M793.1,227.25c51.65-57.31,102.7-116.14,131.87-151.7M802.42,228.73c46.05-53.91,91.34-107.67,126.62-145.66M802.42,228.73c35.63-44.58,74.64-88.33,126.62-145.66M809.77,232.47c28.61-34.84,57.9-66.79,121.37-139.63M809.77,232.47c26.85-31.4,52.01-60.26,121.37-139.63M820.4,232.43c29.08-32.57,52.31-63.23,114.81-132.07M820.4,232.43c29.77-34.21,59.5-68.71,114.81-132.07M831.03,232.4c22.95-27.43,45.58-55.13,104.31-120M831.03,232.4c37.08-42.73,74.53-85.75,104.31-120M841.66,232.36c28.26-30.94,55.39-63.66,93.81-107.92M841.66,232.36c37.49-42.58,75.05-86.74,93.81-107.92M852.29,232.33c28.74-31.12,55.15-64.77,83.32-95.85M852.29,232.33c31.85-37.9,63.63-73.25,83.32-95.85M862.92,232.29c19.66-23.17,38.65-44.59,72.16-83.02M862.92,232.29c13.26-16.5,28.07-34.63,72.16-83.02M873.55,232.26c22.48-26.37,46.99-53.07,61.67-70.94M873.55,232.26c18.9-23.11,38.59-45.58,61.67-70.94M884.18,232.22c16.19-15.68,29.27-32.31,51.17-58.86M884.18,232.22c19.25-22.33,39.04-43.85,51.17-58.86M898.74,227.66c12.34-16.49,27.09-29.47,36.74-42.26M898.74,227.66c12.91-15.14,27.23-28.94,36.74-42.26M910.69,226.12c9.87-8.66,14.08-17.68,23.61-27.17M910.69,226.12c6.76-7.5,13.57-15.17,23.61-27.17M784.64,222.83h0M784.64,222.83h0M801.21,226.63c-8.86-4.52-14.89-12.63-27.17-23.61M801.21,226.63c-6.89-4.63-11.69-10.76-27.17-23.61M814,227.16c-10.71-10.7-21.15-19.62-41.51-36.09M814,227.16c-8.66-8.73-19.08-16.35-41.51-36.09M826.04,227.02c-11.35-12.49-27.25-22.67-53.58-46.58M826.04,227.02c-12.86-12.2-28.32-25.58-53.58-46.58M838.08,226.89c-12.83-13.63-30.32-26.18-65.66-57.08M838.08,226.89c-24.74-20.42-49.01-42.46-65.66-57.08M850.12,226.76c-28.65-25.07-54.2-49.34-77.73-67.58M850.12,226.76c-30.7-25.24-60.35-50.7-77.73-67.58M862.16,226.63c-18.99-16.59-35.71-32.38-89.81-78.08M862.16,226.63c-26.19-24.18-51.52-46.83-89.81-78.08M874.96,227.15c-26.43-23.85-48.8-45.27-101.89-88.57M874.96,227.15c-21.1-17.3-41.75-37.02-101.89-88.57M887,227.02c-24-21.14-48.1-40.25-113.96-99.07M887,227.02c-32.06-27.48-65.56-56.26-113.96-99.07M899.04,226.88c-28.48-25.7-57.11-51.18-126.03-109.56M899.04,226.88c-40.98-34.87-78.32-68.72-126.03-109.56M909.57,225.44c-31.74-27.19-65.28-55.82-136.6-118.75M909.57,225.44c-31.15-27.98-60.38-54.13-136.6-118.75M917.84,222.02c-35.54-28.04-65.62-55.52-144.9-125.96M917.84,222.02c-38.52-33.83-79-68.16-144.9-125.96M923.84,216.64c-50.67-40.79-96.49-81.76-150.18-130.55M923.84,216.64c-56.18-47.51-111.34-96.13-150.18-130.55M927.58,209.29c-59.32-52.19-115.76-102.77-150.94-131.21M927.58,209.29c-36.04-32.13-71.69-62.87-150.94-131.21M929.81,200.63c-49.32-40.82-95.26-85.41-149.43-129.9M929.81,200.63c-54.47-47.24-107.31-93.9-149.43-129.9M929.78,190c-40.64-35.6-82.23-73.9-141.89-123.34M929.78,190c-45.01-38.44-89.71-78.72-141.89-123.34M929.74,179.37c-44.07-38.64-92.81-80.05-132.83-115.47M929.74,179.37c-52.18-43.13-102.71-87.7-132.83-115.47M929.71,168.74c-40.26-35.86-82.47-71.18-122.26-106.28M929.71,168.74c-25.28-23.81-50.97-46.15-122.26-106.28M929.67,158.11c-32.75-29.67-63.1-54.69-109.43-95.13M929.67,158.11c-26.08-22.43-51.03-46.33-109.43-95.13M929.64,147.48c-34.05-30.76-63.99-59.91-97.36-84.63M929.64,147.48c-36.89-33.14-75.18-65.67-97.36-84.63M929.61,136.85c-24.99-22.19-50.67-42.54-85.29-74.14M929.61,136.85c-23.57-20.06-46.92-39.8-85.29-74.14M929.57,126.22c-25.48-24.19-53.8-46.95-72.45-62.98M929.57,126.22c-21.83-17.98-42.84-34.89-72.45-62.98M929.54,115.59c-17.77-16.48-41.45-34.22-60.38-52.49M929.54,115.59c-13.72-11.7-26.2-22.13-60.38-52.49M929.5,104.96c-12.55-10.9-26.73-21.32-48.3-41.99M929.5,104.96c-15.46-13.98-32.21-28.78-48.3-41.99M930.22,94.99c-14.62-9.99-28.92-21.85-36.22-31.5M930.22,94.99c-12.5-12.56-26.89-24-36.22-31.5M928.68,83.04c-8.13-6.17-17.73-14.99-22.64-19.68M928.68,83.04c-6.03-6.19-13.6-12.3-22.64-19.68"/>
    <path class="cls-1" d="M804.22,63.35c30.35,1.67,60.52-.17,93.52,0M804.22,63.35c20.54.68,41.05-.53,93.52,0M897.74,63.35c21.15-1.46,31.79,10.67,32,32M897.74,63.35c23.02-1.63,30.48,12.59,32,32M929.74,95.35c-1.02,33.82,1.16,66.88,0,100.05M929.74,95.35c-1.01,23.91.47,46.55,0,100.05M929.74,195.4c.57,22.01-11.1,32.38-32,32M929.74,195.4c-.11,19.74-10.06,31.07-32,32M897.74,227.4c-30.43-.99-63.9.67-93.52,0M897.74,227.4c-35.84-.04-70.37-.11-93.52,0M804.22,227.4c-19.46-1.21-30.78-8.92-32-32M804.22,227.4c-20.64-2.16-33.1-9.35-32-32M772.22,195.4c1.42-34.1.8-68.85,0-100.05M772.22,195.4c-.99-38.37.06-73.87,0-100.05M772.22,95.35c.21-19.5,10.26-31.79,32-32M772.22,95.35c2-22.04,11.52-33.2,32-32"/>
  </g>
  <text class="cls-5" transform="translate(814 85.97)"><tspan class="cls-12" x="0" y="0">R</tspan><tspan x="11.41" y="0">ecei</tspan><tspan class="cls-13" x="46.41" y="0">v</tspan><tspan x="55.87" y="0">er</tspan><tspan x="0" y="24">(no-op)</tspan></text>
  <g>
    <path class="cls-3" d="M962.91,318.38c33.48,1.95,68.55-2.47,93.52,0,19.87-2.86,33.74,12.2,32,32-2.61,23.26,2.2,42.95,0,100.05-1.48,19.52-12.69,31.26-32,32-18.93-1.07-46.58-1.48-93.52,0-19.51-2.79-33.71-7.48-32-32,.9-27.95-3.19-52.63,0-100.05-1.43-21.2,11.66-31.53,32-32"/>
    <path class="cls-1" d="M962.91,318.38c33.03-1.66,69.2-1.73,93.52,0M962.91,318.38c19.52-.31,38.02.02,93.52,0M1056.43,318.38c22.31-.34,30.28,10.29,32,32M1056.43,318.38c23.2,1.18,32.27,8.8,32,32M1088.43,350.38c-.84,38.54-1.53,75.49,0,100.05M1088.43,350.38c.5,27.75,1.44,57.85,0,100.05M1088.43,450.43c-1.38,21.75-9.74,33.52-32,32M1088.43,450.43c-.71,19.63-9.14,33.53-32,32M1056.43,482.43c-35.48.87-69.2.73-93.52,0M1056.43,482.43c-28.93.15-57.4-1.36-93.52,0M962.91,482.43c-21.91.82-33.77-10.24-32-32M962.91,482.43c-19.79.98-30.64-10.19-32-32M930.91,450.43c-.56-22.74-2.57-43.42,0-100.05M930.91,450.43c1.5-34.77.8-67.47,0-100.05M930.91,350.38c.6-20.71,9.41-33.76,32-32M930.91,350.38c.44-22.39,8.4-33.32,32-32"/>
  </g>
  <text class="cls-5" transform="translate(978.87 341)"><tspan x="0" y="0">Sender</tspan></text>
  <g>
    <path class="cls-3" d="M627.02,197.13c18.24.37,46.39.57,93.52,0,19.74-.64,32.22,13.24,32,32,1.68,34.18,2.58,70.19,0,100.05.6,22.36-13.08,32.5-32,32-28.03,2.17-58.69-3.41-93.52,0-20.76.4-28.72-8.2-32-32-.44-33.82,1.83-72.8,0-100.05,1.28-24.23,9.65-30.01,32-32"/>
    <path class="cls-1" d="M627.02,197.13c23.87-.2,47.86,1.97,93.52,0M627.02,197.13c27.3,1.15,55.95-.47,93.52,0M720.54,197.13c23.07.67,31.87,10.19,32,32M720.54,197.13c22.1-.43,33.69,9.7,32,32M752.54,229.13c1.92,23.86-1.38,49.7,0,100.05M752.54,229.13c1.33,29.9.66,60.98,0,100.05M752.54,329.18c.84,20.46-11.69,31.97-32,32M752.54,329.18c.6,21.9-9.27,30.82-32,32M720.54,361.18c-23.2-1.48-48.9.63-93.52,0M720.54,361.18c-36.97,1.76-73.35.48-93.52,0M627.02,361.18c-21.73-1.18-30.8-12.08-32-32M627.02,361.18c-23.17.58-33.86-8.44-32-32M595.02,329.18c-.04-38.79,1.95-74.34,0-100.05M595.02,329.18c.47-35.87.41-69.95,0-100.05M595.02,229.13c-.21-22.56,12.12-32.26,32-32M595.02,229.13c1.62-23.22,9.76-34.2,32-32"/>
  </g>
  <text class="cls-5" transform="translate(642.99 219.75)"><tspan x="0" y="0">Sender</tspan></text>
  <g>
    <path class="cls-7" d="M467.08,197.13c28.88-1.17,61.16,2.05,93.52,0,22.96.14,30,12.28,32,32,1.85,29.99-1.15,58.43,0,100.05,1.02,22.32-13.46,34.7-32,32-36.49-.59-70.84,1.48-93.52,0-19.02-2.21-31.58-12.21-32-32,.92-40.21-1.38-72.63,0-100.05-3.32-24.69,13.7-32.57,32-32"/>
    <path class="cls-1" d="M467.08,197.13c26.61.43,52.21-2.62,93.52,0M467.08,197.13c35.49,1.19,69.17.62,93.52,0M560.6,197.13c22-.37,33.47,9.82,32,32M560.6,197.13c20.01.67,33.79,12.54,32,32M592.6,229.13c-.84,29.75-.64,56.94,0,100.05M592.6,229.13c.22,28.61-.72,58.08,0,100.05M592.6,329.18c.52,21.83-9.45,30.98-32,32M592.6,329.18c-1.12,20.15-11.67,32.36-32,32M560.6,361.18c-21.26-1.22-44.09-.76-93.52,0M560.6,361.18c-36.08-1-71.17-1.12-93.52,0M467.08,361.18c-22.93.5-33.62-8.73-32-32M467.08,361.18c-19.62-1.69-33.94-11.56-32-32M435.08,329.18c.4-24.06.75-46.43,0-100.05M435.08,329.18c-.14-22.3.69-43.51,0-100.05M435.08,229.13c1.41-22.97,9.87-33.91,32-32M435.08,229.13c-1.58-19.42,11.42-34.17,32-32"/>
  </g>
  <text class="cls-5" transform="translate(476.86 219.75)"><tspan class="cls-12" x="0" y="0">R</tspan><tspan x="11.41" y="0">ecei</tspan><tspan class="cls-13" x="46.41" y="0">v</tspan><tspan x="55.87" y="0">er</tspan></text>
  <g>
    <path class="cls-2" d="M780.08,326.54h0M780.08,326.54h0M774.97,344.62c3.5-4.52,7.4-8.56,18.37-21.13M774.97,344.62c6.38-7.42,11.17-12.41,18.37-21.13M775.1,356.66c9.49-10.33,16.02-18.62,31.49-36.23M775.1,356.66c8.31-9.75,16.95-19.22,31.49-36.23M774.58,369.45c12.39-15.28,22.55-26.7,42.64-49.05M774.58,369.45c16.6-18.59,32.46-37.68,42.64-49.05M774.71,381.49c14.04-17.71,30.03-37.06,53.14-61.13M774.71,381.49c17.18-19.09,34.1-37.01,53.14-61.13M774.84,393.54c16.07-16.61,29.16-33.49,63.64-73.21M774.84,393.54c12.94-15.78,27.31-30.86,63.64-73.21M774.32,406.33c14.05-18.77,31.19-35.87,74.79-86.04M774.32,406.33c23.73-25.79,45.73-52.09,74.79-86.04M774.45,418.37c25.69-32.11,49.5-61.38,84.63-97.36M774.45,418.37c21-21.65,39.28-43.88,84.63-97.36M774.59,430.41c28.18-29.73,56.51-64.41,95.12-109.43M774.59,430.41c34.82-42.38,69.91-81.6,95.12-109.43M774.72,442.45c24.37-27.27,47.34-53.64,105.62-121.5M774.72,442.45c31.17-33.2,60.68-67.01,105.62-121.5M775.51,453.74c42.39-47.94,87.86-98.77,115.47-132.83M775.51,453.74c32.47-38,66.8-77.5,115.47-132.83M775.64,465.78c41.62-49.58,84.89-99.41,125.97-144.9M775.64,465.78c29.31-32.9,59.74-67,125.97-144.9M780.37,472.54c33.86-38.9,72.23-82.34,129.9-149.43M780.37,472.54c32.01-35.4,64.4-71.41,129.9-149.43M785.75,478.54c48.07-52.95,96.87-111.08,133.83-153.96M785.75,478.54c26.4-31.11,54.3-62.23,133.83-153.96M793.1,482.28c54.18-60.1,106.79-121.05,131.87-151.7M793.1,482.28c30.89-35.78,62.73-71.57,131.87-151.7M802.42,483.76c43.92-53.71,90.05-105.3,126.62-145.66M802.42,483.76c37.59-45.02,76.55-91.09,126.62-145.66M809.77,487.5c34.61-42.12,71.01-85.49,121.37-139.63M809.77,487.5c37.03-42.54,75.11-87.24,121.37-139.63M820.4,487.46c42.57-48.41,87.85-101.46,114.81-132.07M820.4,487.46c35.14-39.5,70.2-79.68,114.81-132.07M831.03,487.43c33.54-40.82,68.97-79.96,104.31-120M831.03,487.43c33.8-40.98,69.83-80.38,104.31-120M841.66,487.39c26.52-28.82,53.02-60.91,93.81-107.92M841.66,487.39c33.68-37.52,65.84-75.77,93.81-107.92M852.29,487.36c19.33-20.78,35.37-43.02,83.32-95.85M852.29,487.36c33.57-38.78,65.9-74.79,83.32-95.85M862.92,487.32c17.58-18.69,37.66-41.64,72.16-83.02M862.92,487.32c20.25-23,38.92-45.33,72.16-83.02M873.55,487.29c16.57-15.69,31.53-33.42,61.67-70.94M873.55,487.29c23.87-26.87,48.43-55.99,61.67-70.94M884.18,487.25c15.22-15.58,27.75-30.99,51.17-58.86M884.18,487.25c13.78-16.05,27.22-32.43,51.17-58.86M898.74,482.69c9.79-9.8,18.65-21.84,36.74-42.26M898.74,482.69c10.18-12.4,21.29-23.56,36.74-42.26M910.69,481.15c8.42-7.16,13.27-16.56,23.61-27.17M910.69,481.15c5.05-5.65,10.03-10.82,23.61-27.17M784.64,477.86h0M784.64,477.86h0M794.41,475.76c-3.99-1.52-7.15-5.65-17.36-15.09M794.41,475.76c-4.14-3.78-9.7-7.55-17.36-15.09M808.72,477.6c-10.47-9.53-23.93-19.68-33.96-29.53M808.72,477.6c-10.04-7.27-17.67-16.03-33.96-29.53M820.76,477.46c-13.59-9.84-27.77-24.26-46.04-40.02M820.76,477.46c-13.48-11.18-26.26-22.94-46.04-40.02M832.8,477.33c-18.23-15.65-32.82-31.96-58.11-50.52M832.8,477.33c-22.77-18.26-45.07-39.25-58.11-50.52M844.84,477.2c-23.09-19.63-49.2-40.61-70.19-61.02M844.84,477.2c-15.24-12.98-31.34-24.9-70.19-61.02M857.64,477.72c-31.06-27.7-64.32-56.16-83.02-72.17M857.64,477.72c-27.44-22.31-54.04-46.3-83.02-72.17M869.68,477.59c-35.61-30.14-69.82-61.77-95.1-82.67M869.68,477.59c-32.55-28.74-64.86-58.58-95.1-82.67M881.72,477.45c-35.82-33.01-71.86-61.46-107.17-93.16M881.72,477.45c-30.89-26.17-63.02-54.31-107.17-93.16M898.29,481.26c-46.04-41.95-93.46-81.59-123.78-107.6M898.29,481.26c-44.12-38.38-89.58-76.56-123.78-107.6M908.82,479.81c-33.55-32.28-67.2-62.88-133.59-116.12M908.82,479.81c-33.68-28.99-66.84-58.7-133.59-116.12M917.84,477.05c-35.55-30.41-68.08-58.51-142.64-123.99M917.84,477.05c-44.88-39.59-89.07-77.68-142.64-123.99M923.84,471.67c-50.27-41.19-98.73-84.49-150.18-130.55M923.84,471.67c-49.52-41.79-99.39-84.07-150.18-130.55M929.09,465.63c-57.08-49.86-115.49-99.82-152.45-132.52M929.09,465.63c-35.4-29.3-69.01-59.23-152.45-132.52M932.83,458.28c-44.33-40.37-88.79-79.55-152.45-132.52M932.83,458.28c-39.74-35.53-80.72-69.43-152.45-132.52M932.8,447.65c-42.18-38.26-87.18-73.53-144.91-125.96M932.8,447.65c-48.76-39.65-96.17-81.15-144.91-125.96M932.76,437.02c-51-44.67-104.46-87.72-138.86-120.71M932.76,437.02c-46.26-39.93-93.75-81.07-138.86-120.71M932.73,426.39c-42.34-33.76-82.64-68.3-126.79-110.21M932.73,426.39c-47.37-40.62-94.93-83.14-126.79-110.21M932.69,415.76c-43.38-38.23-89.49-79.36-114.71-99.72M932.69,415.76c-25.25-23.27-51.78-46.63-114.71-99.72M932.66,405.13c-37.62-33.62-71.51-64.68-101.89-88.56M932.66,405.13c-35.69-28.09-69.43-58.9-101.89-88.56M932.62,394.5c-36.52-28.22-70.78-60.51-89.81-78.07M932.62,394.5c-32.81-28.27-67.43-57.52-89.81-78.07M932.59,383.87c-16.09-15.41-31.21-28.48-77.74-67.57M932.59,383.87c-27.16-23.81-52.39-46.7-77.74-67.57M932.56,373.24c-16.68-13.61-31.68-28.59-64.91-56.42M932.56,373.24c-23.91-20.87-50.21-43.68-64.91-56.42M932.52,362.61c-11.05-10.4-26.07-21.94-52.83-45.92M932.52,362.61c-16.49-14.15-32.01-27.27-52.83-45.92M930.22,350.02c-10.36-8.4-20.54-17.05-38.49-33.46M930.22,350.02c-10.58-9.61-21.05-19.12-38.49-33.46M928.68,338.07c-4.06-2.95-9.56-8.38-22.64-19.68M928.68,338.07c-7.35-6.35-12.97-11.96-22.64-19.68"/>
    <path class="cls-1" d="M804.22,318.38c22.02.48,47.69,1.33,93.52,0M804.22,318.38c24.8-.11,47.76-.13,93.52,0M897.74,318.38c22.96,1.03,32.23,9.05,32,32M897.74,318.38c23.22.44,30.43,9.48,32,32M929.74,350.38c-1.16,33.1-2.05,62.78,0,100.05M929.74,350.38c0,22.28,1.17,44.91,0,100.05M929.74,450.43c-.62,19.85-9.34,33.33-32,32M929.74,450.43c1.59,22.55-10.17,30.9-32,32M897.74,482.43c-30.91,2.02-64.08.67-93.52,0M897.74,482.43c-37.54-.08-75.39-.28-93.52,0M804.22,482.43c-19.99.85-30.82-10.25-32-32M804.22,482.43c-23.09,1.89-30.63-10.36-32-32M772.22,450.43c1.66-30.02,2.13-55.15,0-100.05M772.22,450.43c.45-21.16-.48-43.83,0-100.05M772.22,350.38c.38-22.25,8.69-33.14,32-32M772.22,350.38c1.71-20.76,11.64-32.98,32-32"/>
  </g>
  <text class="cls-5" transform="translate(814 341)"><tspan class="cls-12" x="0" y="0">R</tspan><tspan x="11.41" y="0">ecei</tspan><tspan class="cls-13" x="46.41" y="0">v</tspan><tspan x="55.87" y="0">er</tspan><tspan x="0" y="24">(no-op)</tspan></text>
  <g>
    <path class="cls-1" d="M564.29,292.85c10.67-.22,53.86-1.44,64.97-1.64M566.01,292.42c11.03-.13,54.68,0,65.44.08"/>
    <path class="cls-1" d="M607.91,300.94c9.05-4.06,13.46-3.79,23.54-8.44M607.91,300.94c6.57-2.41,13.94-4.64,23.54-8.44"/>
    <path class="cls-1" d="M607.99,283.84c9.15,1.13,13.53,6.59,23.46,8.66M607.99,283.84c6.7,2.68,14.04,5.55,23.46,8.66"/>
  </g>
  <g>
    <path class="cls-1" d="M756.19,241.14c15.32-15.59,77.7-78.95,93.34-94.5M758,240.26c15.66-15.39,78.67-76.75,93.86-92.51"/>
    <path class="cls-1" d="M841.3,170.41c4.41-9.19,6.22-16.39,10.56-22.66M841.3,170.41c4.14-7.53,6.34-15.68,10.56-22.66"/>
    <path class="cls-1" d="M829.2,158.32c8.62-4.83,14.72-7.75,22.66-10.57M829.2,158.32c8.26-3.5,14.46-7.64,22.66-10.57"/>
  </g>
  <text class="cls-5" transform="translate(782.16 168.74)"><tspan x="0" y="0">push</tspan></text>
  <g>
    <path class="cls-1" d="M851.35,144.79c.22.27,1.18,1.6,1.45,1.87M851.92,144.44c.34.14,1.4,1.27,1.52,1.64"/>
    <path class="cls-1" d="M852.52,145.38c.25.17.53.38.92.7M852.52,145.38c.24.16.45.33.92.7"/>
    <path class="cls-1" d="M853.18,144.95c.07.29.16.62.26,1.13M853.18,144.95c.08.27.13.54.26,1.13"/>
  </g>
  <g>
    <path class="cls-1" d="M1072.49,145.49c21.18-.08,106.29-.9,127.71-.92M1074.73,144.88c20.95.04,102.96.69,123.87.53"/>
    <path class="cls-1" d="M1167.2,151.3c8.86-1.93,14.92-2.72,31.41-5.89M1167.2,151.3c10.46-2.58,22.02-3.6,31.41-5.89"/>
    <path class="cls-1" d="M1167.25,139.45c8.79,1.14,14.83,3.42,31.36,5.96M1167.25,139.45c10.57,1.49,22.11,4.55,31.36,5.96"/>
  </g>
  <text class="cls-5" transform="translate(1134.95 136.85)"><tspan x="0" y="0">push</tspan></text>
  <g>
    <path class="cls-1" d="M756.63,333.17c14.53,14.6,72.59,73.68,87.32,88.44M758.67,331.89c14.9,14.75,73.15,75.98,87.4,91.18"/>
    <path class="cls-1" d="M823.71,411.89c5.71,1.41,12.65,6.4,22.36,11.18M823.71,411.89c7.6,3.49,14.18,7.75,22.36,11.18"/>
    <path class="cls-1" d="M836.13,400.13c2.18,4.76,5.54,13.13,9.94,22.94M836.13,400.13c3.85,6.94,6.73,14.7,9.94,22.94"/>
  </g>
  <text class="cls-5" transform="translate(779.56 414.26)"><tspan x="0" y="0">push</tspan></text>
  <g>
    <path class="cls-1" d="M347.58,293.44c17.43-.26,85.93-.39,103.5-.23M346.18,295.69c17.21-.19,85.69-.81,103.47-1.38"/>
    <path class="cls-1" d="M419.43,303.44c7.14-3.28,15.55-3.42,30.22-9.13M419.43,303.44c11.33-2.94,18.91-6.15,30.22-9.13"/>
    <path class="cls-1" d="M418.89,286.34c7.43,1.65,15.99,6.44,30.77,7.97M418.89,286.34c11.42,2.72,19.19,5.16,30.77,7.97"/>
  </g>
  <text class="cls-5" transform="translate(370.82 286.34)"><tspan x="0" y="0">Pull</tspan></text>
  <g>
    <path class="cls-1" d="M899.26,422.96c14.7-.31,72.74-1.39,87.15-1.31M897.76,422.25c14.59.34,72.38.68,87.43.57"/>
    <path class="cls-1" d="M961.69,431.36c5.86-2.64,8.55-5.5,23.5-8.54M961.69,431.36c8.42-3.73,17.56-5.92,23.5-8.54"/>
    <path class="cls-1" d="M961.7,414.26c6.03.92,8.71,1.61,23.49,8.56M961.7,414.26c8.42,2.91,17.55,7.37,23.49,8.56"/>
  </g>
  <g>
    <path class="cls-1" d="M1075.95,417.88c26.87.32,132.92,2.32,159.34,2.45M1074.73,419.9c26.71.05,132.1-1.24,159.23-1.3"/>
    <path class="cls-1" d="M1204.94,427.46c4.96-2.81,16.23-6.16,29.02-8.86M1204.94,427.46c5.97-2.95,12.78-4.59,29.02-8.86"/>
    <path class="cls-1" d="M1204.74,410.18c4.9,1.54,16.21,2.53,29.22,8.41M1204.74,410.18c5.87.96,12.73,3.24,29.22,8.41"/>
  </g>
  <text class="cls-5" transform="translate(1133.33 414.26)"><tspan x="0" y="0">push</tspan></text>
  <g>
    <path class="cls-1" d="M898.91,155.19c10.64.14,52.96-.52,63.56-.61M900.89,154.41c10.62.42,50.9,1.39,61.12,1.65"/>
    <path class="cls-1" d="M938.31,164.02c6.69-.3,11.46-2.25,23.7-7.96M938.31,164.02c7.77-2.09,13.73-3.89,23.7-7.96"/>
    <path class="cls-1" d="M938.74,146.92c6.45,3.88,11.11,6.11,23.27,9.14M938.74,146.92c7.68,3,13.5,6.29,23.27,9.14"/>
  </g>
</svg>
